<svg xmlns="http://www.w3.org/2000/svg" width="2353.445" height="705.599" viewBox="0 0 2353.445 705.599"><path d="M428.025,620.989c-441.316-147.79-408.473-273-408.473-273l18.754-20.774L2.552,287.61S-30.29,162.4,411.025,14.611C683.514-76.642,758.8-23.9,907.469,28.832c92.11,32.674,212.387,65.349,425.187,63.778,556.263-4.1,480.316,86.211,617.842,96.474s260.684-69.79,260.684-69.79L2319.6,301.161l35.842,1.67-17.423,29.226.424.711-.872.041L2228.182,516.3s-123.158-80.052-260.684-69.79-61.579,100.58-617.842,96.474c-212.8-1.57-333.077,31.1-425.186,63.778C834.5,638.681,771.393,670.6,675.2,670.6,612.446,670.6,535.614,657.019,428.025,620.989Z" transform="translate(-2 35)" fill="#f3f3f3"/></svg>